<?xml version="1.0" encoding="UTF-8" standalone="no"?>
<svg
   xmlns:dc="http://purl.org/dc/elements/1.1/"
   xmlns:cc="http://creativecommons.org/ns#"
   xmlns:rdf="http://www.w3.org/1999/02/22-rdf-syntax-ns#"
   xmlns:svg="http://www.w3.org/2000/svg"
   xmlns="http://www.w3.org/2000/svg"
   xmlns:sodipodi="http://sodipodi.sourceforge.net/DTD/sodipodi-0.dtd"
   xmlns:inkscape="http://www.inkscape.org/namespaces/inkscape"
   width="143.6366pt"
   height="129.3839pt"
   version="1.1"
   viewBox="0 0 143.6366 129.38389"
   id="svg1073"
   sodipodi:docname="renova-logo-dark.svg">
  <defs
     id="defs1077" />
  <sodipodi:namedview
     pagecolor="#505050"
     bordercolor="#666666"
     borderopacity="1"
     objecttolerance="10"
     gridtolerance="10"
     guidetolerance="10"
     inkscape:pageopacity="0"
     inkscape:pageshadow="2"
     inkscape:window-width="640"
     inkscape:window-height="480"
     id="namedview1075"
     showgrid="false"
     fit-margin-top="0"
     fit-margin-left="0"
     fit-margin-right="0"
     fit-margin-bottom="0"
     inkscape:snap-grids="false"
     inkscape:snap-to-guides="false"
     inkscape:object-paths="true"
     inkscape:snap-bbox="true"
     inkscape:snap-center="true"
     inkscape:snap-smooth-nodes="true"
     inkscape:snap-bbox-edge-midpoints="false"
     inkscape:bbox-nodes="false"
     inkscape:bbox-paths="true" />
  <metadata
     id="metadata1012">
    <rdf:RDF>
      <cc:Work
         rdf:about="">
        <dc:format>image/svg+xml</dc:format>
        <dc:type
           rdf:resource="http://purl.org/dc/dcmitype/StillImage" />
        <dc:title></dc:title>
      </cc:Work>
    </rdf:RDF>
  </metadata>
  <g
     id="g1662"
     style="fill:#dd7373;fill-opacity:1">
    <path
       d="m 37.29,47.853 c 0,0 12.961,1.9875 12.961,15.366 v 66.164 h 7.0664 V 64.466 c 0,0 -0.31738,-7.7183 9.9873,-7.7183 7.2617,0 10.125,3.1953 10.125,7.4766 v 65.159 h 8.5591 v -64.917 c 0,0 -0.31689,-7.7183 9.9917,-7.7183 7.2578,0 10.118,3.1953 10.118,7.4766 v 65.159 h 8.7144 v -64.916 c 0,0 -0.31593,-7.7197 9.9888,-7.7197 7.2617,0 10.119,3.1967 10.119,7.478 v 65.158 h 8.7144 v -81.529 h -8.7144 z"
       id="path1014"
       style="fill:#dd7373;fill-opacity:1" />
    <path
       d="M 0,5e-4 V 5.063 c 0,0 30.284,8.9175 30.284,23.386 h 113.35 V 0 Z"
       stroke-width="1.0154"
       id="path1016"
       style="fill:#dd7373;fill-opacity:1" />
    <path
       sodipodi:nodetypes="czcccccc"
       d="m 32.879335,30.166992 c -1.873693,0.0027 -3.817904,1.576745 -3.817904,5.026612 0,3.449867 1.943453,5.026611 3.817904,5.026611 H 143.63672 l -0.007,-4.16455 h -0.003 l -0.006,-5.888673 z"
       style="fill:#dd7373;stroke-width:0.735556;fill-opacity:1"
       id="path1018" />
    <path
       sodipodi:nodetypes="cczsc"
       d="M 143.63003,41.664343 H 33.209194 c -1.509574,0 -2.912543,0.638616 -2.912543,2.319136 0,1.68052 1.404528,2.135251 2.912543,2.135251 H 143.6364"
       stroke-width="0.998107"
       id="path1022"
       style="fill:#dd7373;fill-opacity:1" />
  </g>
</svg>
